<svg xmlns="http://www.w3.org/2000/svg" width="104.714" height="30.469" viewBox="0 0 104.714 30.469"><g transform="translate(-36.05 -25.33)"><path d="M5.721-1.806A6.866,6.866,0,0,1,3.1-2.3,5.762,5.762,0,0,1,1.05-3.684L2.563-5.693A6.25,6.25,0,0,0,4.116-4.611a3.171,3.171,0,0,0,1.292.326,3.177,3.177,0,0,0,.8-.091,1.269,1.269,0,0,0,.561-.287.666.666,0,0,0,.209-.509.831.831,0,0,0-.352-.7,2.991,2.991,0,0,0-.9-.431q-.548-.17-1.174-.352A4.273,4.273,0,0,1,2.289-8.107,3.457,3.457,0,0,1,1.6-10.182a3.723,3.723,0,0,1,.457-1.735,3.683,3.683,0,0,1,1.461-1.461,5.1,5.1,0,0,1,2.6-.587,8.837,8.837,0,0,1,2.427.287,5.953,5.953,0,0,1,1.879.939L9.035-10.6a5.21,5.21,0,0,0-1.109-.665,3.2,3.2,0,0,0-1.135-.3,1.864,1.864,0,0,0-.8.1,1.305,1.305,0,0,0-.509.339.664.664,0,0,0-.183.444.85.85,0,0,0,.378.783,3.046,3.046,0,0,0,1.031.444q.626.157,1.226.365a4.8,4.8,0,0,1,1.435.7A3.145,3.145,0,0,1,10.3-7.324a3.1,3.1,0,0,1,.326,1.474,3.878,3.878,0,0,1-.535,1.97,3.932,3.932,0,0,1-1.618,1.5A5.847,5.847,0,0,1,5.721-1.806ZM12.81-2.04V-15.67h3.575v4.523l-.026-.444a4.7,4.7,0,0,1,1.7-1.735,5.09,5.09,0,0,1,2.688-.665,3.941,3.941,0,0,1,2.7.952,3.21,3.21,0,0,1,1.109,2.466V-2.04H20.9V-9.216a1.952,1.952,0,0,0-.4-1.213,1.558,1.558,0,0,0-1.266-.457,2.15,2.15,0,0,0-1.461.548A3.513,3.513,0,0,0,16.8-8.851a6.361,6.361,0,0,0-.339,2.166V-2.04Zm18.309.548a3.69,3.69,0,0,1-2.583-.952,3.351,3.351,0,0,1-1.1-2.466v-8.533h3.653v7.176a2.258,2.258,0,0,0,.391,1.213,1.338,1.338,0,0,0,1.148.457,1.976,1.976,0,0,0,1.4-.548,3.6,3.6,0,0,0,.913-1.5A6.623,6.623,0,0,0,35.268-8.8v-4.645h3.653v11.4H35.607L35.32-4.128l.052.235a4.924,4.924,0,0,1-.992,1.253,4.238,4.238,0,0,1-1.422.848A5.334,5.334,0,0,1,31.119-1.492ZM49.3-1.727a5.425,5.425,0,0,1-2.414-.483,5.867,5.867,0,0,1-1.709-1.266l.287-.783V-2.04H41.808V-15.67h3.627v3.009a5.647,5.647,0,0,1,1.8-.965,7.742,7.742,0,0,1,2.557-.391,5.351,5.351,0,0,1,2.714.7,5.2,5.2,0,0,1,1.97,2.048,6.676,6.676,0,0,1,.744,3.275A6.513,6.513,0,0,1,54.4-4.65,5.723,5.723,0,0,1,52.22-2.484,5.9,5.9,0,0,1,49.3-1.727Zm-.809-3.079a2.851,2.851,0,0,0,1.5-.418A3.124,3.124,0,0,0,51.1-6.372a3.254,3.254,0,0,0,.417-1.644A3.113,3.113,0,0,0,51.1-9.634a3.08,3.08,0,0,0-1.109-1.109,2.92,2.92,0,0,0-1.5-.4,3.845,3.845,0,0,0-1.318.222,2.986,2.986,0,0,0-1.044.626,2.754,2.754,0,0,0-.665.979v2.792a3.45,3.45,0,0,0,.744.952,2.941,2.941,0,0,0,1,.574A3.945,3.945,0,0,0,48.488-4.806ZM57.221-2.04V-15.67H60.8v4.523l-.026-.444a4.7,4.7,0,0,1,1.7-1.735,5.09,5.09,0,0,1,2.688-.665,3.941,3.941,0,0,1,2.7.952,3.21,3.21,0,0,1,1.109,2.466V-2.04H65.31V-9.216a1.952,1.952,0,0,0-.4-1.213,1.558,1.558,0,0,0-1.266-.457,2.15,2.15,0,0,0-1.461.548,3.513,3.513,0,0,0-.965,1.487,6.361,6.361,0,0,0-.339,2.166V-2.04Zm19.431.313a6.411,6.411,0,0,1-2.883-.639,4.754,4.754,0,0,1-2.048-1.97,6.8,6.8,0,0,1-.757-3.392,6.772,6.772,0,0,1,.783-3.34,5.724,5.724,0,0,1,2.061-2.179,5.177,5.177,0,0,1,2.714-.77,4.8,4.8,0,0,1,2.57.561,6.415,6.415,0,0,1,1.448,1.239l-.157.444.339-1.67h3.392v11.4H80.462V-4.519l.287.783q-.052,0-.313.3a5.947,5.947,0,0,1-.77.7,5.021,5.021,0,0,1-1.252.7A4.7,4.7,0,0,1,76.652-1.727ZM77.7-4.7a3.325,3.325,0,0,0,1.174-.2,2.624,2.624,0,0,0,.913-.574,3.462,3.462,0,0,0,.678-.952V-9.216a2.558,2.558,0,0,0-.626-.979,2.918,2.918,0,0,0-.992-.626,3.522,3.522,0,0,0-1.279-.222,2.737,2.737,0,0,0-1.448.4,2.945,2.945,0,0,0-1.057,1.109,3.275,3.275,0,0,0-.391,1.618,3.254,3.254,0,0,0,.417,1.644A3.124,3.124,0,0,0,76.2-5.119,2.85,2.85,0,0,0,77.7-4.7Zm12.621-8.741.287,2.009-.052-.157a5.162,5.162,0,0,1,1.7-1.787,4.518,4.518,0,0,1,2.453-.639,4.837,4.837,0,0,1,1.657.261,3.186,3.186,0,0,1,1.213.77,2.689,2.689,0,0,1,.678,1.318l-.13.026a6.031,6.031,0,0,1,1.761-1.722,3.967,3.967,0,0,1,2.153-.652,3.764,3.764,0,0,1,2.7.952,3.329,3.329,0,0,1,1.031,2.466V-2.04h-3.627V-9.086a3.452,3.452,0,0,0-.235-1.239,1.017,1.017,0,0,0-.965-.535,2.041,2.041,0,0,0-1.5.613,3.772,3.772,0,0,0-.913,1.566,6.517,6.517,0,0,0-.3,1.97V-2.04H94.57V-9.086a2.935,2.935,0,0,0-.274-1.239,1.113,1.113,0,0,0-1-.535,1.926,1.926,0,0,0-1.448.613,3.935,3.935,0,0,0-.887,1.553,6.307,6.307,0,0,0-.3,1.931V-2.04H87v-11.4Z" transform="translate(35 41)" fill="#707070"/><path d="M5.721-1.806A6.866,6.866,0,0,1,3.1-2.3,5.762,5.762,0,0,1,1.05-3.684L2.563-5.693A6.25,6.25,0,0,0,4.116-4.611a3.171,3.171,0,0,0,1.292.326,3.177,3.177,0,0,0,.8-.091,1.269,1.269,0,0,0,.561-.287.666.666,0,0,0,.209-.509.831.831,0,0,0-.352-.7,2.991,2.991,0,0,0-.9-.431q-.548-.17-1.174-.352A4.273,4.273,0,0,1,2.289-8.107,3.457,3.457,0,0,1,1.6-10.182a3.723,3.723,0,0,1,.457-1.735,3.683,3.683,0,0,1,1.461-1.461,5.1,5.1,0,0,1,2.6-.587,8.837,8.837,0,0,1,2.427.287,5.953,5.953,0,0,1,1.879.939L9.035-10.6a5.21,5.21,0,0,0-1.109-.665,3.2,3.2,0,0,0-1.135-.3,1.864,1.864,0,0,0-.8.1,1.305,1.305,0,0,0-.509.339.664.664,0,0,0-.183.444.85.85,0,0,0,.378.783,3.046,3.046,0,0,0,1.031.444q.626.157,1.226.365a4.8,4.8,0,0,1,1.435.7A3.145,3.145,0,0,1,10.3-7.324a3.1,3.1,0,0,1,.326,1.474,3.878,3.878,0,0,1-.535,1.97,3.932,3.932,0,0,1-1.618,1.5A5.847,5.847,0,0,1,5.721-1.806Zm7.959-.235V-15.67h3.575v4.523l-.026-.444a4.7,4.7,0,0,1,1.7-1.735,5.09,5.09,0,0,1,2.688-.665,3.941,3.941,0,0,1,2.7.952,3.21,3.21,0,0,1,1.109,2.466V-2.04H21.768V-9.216a1.952,1.952,0,0,0-.4-1.213,1.558,1.558,0,0,0-1.266-.457,2.15,2.15,0,0,0-1.461.548,3.513,3.513,0,0,0-.965,1.487,6.361,6.361,0,0,0-.339,2.166V-2.04Zm20.3.313A6.411,6.411,0,0,1,31.1-2.367a4.754,4.754,0,0,1-2.048-1.97,6.8,6.8,0,0,1-.757-3.392,6.772,6.772,0,0,1,.783-3.34,5.724,5.724,0,0,1,2.061-2.179,5.177,5.177,0,0,1,2.714-.77,4.8,4.8,0,0,1,2.57.561,6.415,6.415,0,0,1,1.448,1.239l-.157.444.339-1.67h3.392v11.4H37.79V-4.519l.287.783q-.052,0-.313.3a5.948,5.948,0,0,1-.77.7,5.021,5.021,0,0,1-1.253.7A4.7,4.7,0,0,1,33.98-1.727ZM35.024-4.7A3.325,3.325,0,0,0,36.2-4.9a2.624,2.624,0,0,0,.913-.574,3.462,3.462,0,0,0,.678-.952V-9.216a2.558,2.558,0,0,0-.626-.979,2.918,2.918,0,0,0-.992-.626,3.522,3.522,0,0,0-1.279-.222,2.737,2.737,0,0,0-1.448.4,2.945,2.945,0,0,0-1.057,1.109A3.275,3.275,0,0,0,32-7.911a3.254,3.254,0,0,0,.417,1.644,3.124,3.124,0,0,0,1.109,1.148A2.851,2.851,0,0,0,35.024-4.7Zm13.464-8.741.339,3.131-.078-.47a5.192,5.192,0,0,1,1.357-1.735,7.8,7.8,0,0,1,1.709-1.109,3.453,3.453,0,0,1,1.292-.391l-.183,3.653a3.258,3.258,0,0,0-2.192.417,3.925,3.925,0,0,0-1.409,1.513,4.09,4.09,0,0,0-.5,1.931V-2.04H45.2v-11.4Zm10.725,0,.287,2.009-.052-.157a5.162,5.162,0,0,1,1.7-1.787,4.518,4.518,0,0,1,2.453-.639,4.837,4.837,0,0,1,1.657.261,3.186,3.186,0,0,1,1.213.77,2.689,2.689,0,0,1,.678,1.318l-.13.026a6.031,6.031,0,0,1,1.761-1.722,3.967,3.967,0,0,1,2.153-.652,3.764,3.764,0,0,1,2.7.952A3.329,3.329,0,0,1,74.66-10.6V-2.04H71.033V-9.086a3.452,3.452,0,0,0-.235-1.239,1.017,1.017,0,0,0-.965-.535,2.041,2.041,0,0,0-1.5.613,3.771,3.771,0,0,0-.913,1.566,6.517,6.517,0,0,0-.3,1.97V-2.04H63.466V-9.086a2.935,2.935,0,0,0-.274-1.239,1.113,1.113,0,0,0-1-.535,1.926,1.926,0,0,0-1.448.613,3.935,3.935,0,0,0-.887,1.553,6.307,6.307,0,0,0-.3,1.931V-2.04H55.9v-11.4ZM83.219-1.727a6.411,6.411,0,0,1-2.883-.639,4.754,4.754,0,0,1-2.048-1.97,6.8,6.8,0,0,1-.757-3.392,6.772,6.772,0,0,1,.783-3.34,5.724,5.724,0,0,1,2.061-2.179,5.177,5.177,0,0,1,2.714-.77,4.8,4.8,0,0,1,2.57.561,6.415,6.415,0,0,1,1.448,1.239l-.157.444.339-1.67h3.392v11.4H87.029V-4.519l.287.783q-.052,0-.313.3a5.947,5.947,0,0,1-.77.7,5.022,5.022,0,0,1-1.253.7A4.7,4.7,0,0,1,83.219-1.727ZM84.263-4.7a3.325,3.325,0,0,0,1.174-.2,2.624,2.624,0,0,0,.913-.574,3.462,3.462,0,0,0,.678-.952V-9.216a2.558,2.558,0,0,0-.626-.979,2.918,2.918,0,0,0-.992-.626,3.522,3.522,0,0,0-1.279-.222,2.737,2.737,0,0,0-1.448.4,2.945,2.945,0,0,0-1.057,1.109,3.275,3.275,0,0,0-.391,1.618,3.254,3.254,0,0,0,.417,1.644,3.124,3.124,0,0,0,1.109,1.148A2.85,2.85,0,0,0,84.263-4.7Z" transform="translate(49.786 57.526)" fill="#707070"/></g></svg>